<svg xmlns="http://www.w3.org/2000/svg" version="1.1" xmlns:xlink="http://www.w3.org/1999/xlink" xmlns:svgjs="http://svgjs.dev/svgjs" viewBox="0 0 11.140702378711941 5.362153745569605"><g transform="matrix(0.7958797617568999,0,0,0.7958797617568999,1.6842834618899767,1.924717515447644)"><rect width="12.515940389068737" height="12.515940389068737" x="-1.375238010356795" y="-5.3076264445343675" fill="#ffffff"></rect><g transform="matrix(1,0,0,1,0,0)" clip-path="url(#SvgjsClipPath69669)"><g clip-path="url(#SvgjsClipPath69664bb73fb4f-2e63-4f9b-9447-4944a2e465ef)"><path d=" M 9.08873322152992 0.2587678139624978 L 8.072858965203643 -0.3273134877641989 C 8.05410436354839 -0.3382536720630973 8.033786878421864 -0.3429423224769108 8.013469393295338 -0.3429423224769108 C 7.993151908168813 -0.3429423224769108 7.971271539571017 -0.3382536720630973 7.954079821387033 -0.3273134877641989 L 6.938205565060759 0.2587678139624978 C 6.90069636175025 0.28064818256029467 6.878815993152453 0.31972026934207465 6.878815993152453 0.3634810065376679 L 6.878815993152453 1.5372064934623326 C 6.878815993152453 1.5809672306579263 6.902259245221521 1.6200393174397059 6.938205565060759 1.6419196860375025 L 7.954079821387033 2.2280009877641995 C 7.972834423042287 2.238941172063098 7.993151908168813 2.2436298224769113 8.013469393295338 2.2436298224769113 C 8.033786878421864 2.2436298224769113 8.055667247019661 2.238941172063098 8.072858965203643 2.226438104292928 L 9.08873322152992 1.6403568025662314 C 9.126242424840427 1.6184764339684343 9.148122793438224 1.5794043471866548 9.148122793438224 1.535643609991062 L 9.148122793438224 0.3634810065376679 C 9.148122793438224 0.31972026934207465 9.126242424840427 0.28064818256029467 9.08873322152992 0.2587678139624978 Z M 8.90743873886246 1.466876737255129 L 8.011906509824067 1.984191166245894 L 7.116374280785675 1.466876737255129 L 7.116374280785675 0.4322478792736002 L 8.011906509824067 -0.08506654971716432 L 8.90743873886246 0.4322478792736 L 8.90743873886246 1.466876737255129 Z" fill="#2c2a56" transform="matrix(1,0,0,1,0,0)" fill-rule="nonzero"></path></g><g clip-path="url(#SvgjsClipPath69664bb73fb4f-2e63-4f9b-9447-4944a2e465ef)"><path d=" M 8.011906509824067 -1.0431141176064047 C 7.979085956927372 -1.0431141176064047 7.944702520559406 -1.0352997002500488 7.915007734605254 -1.0165450985947946 C 7.822797609800253 -0.963407060571574 7.789977056903558 -0.8446279167549634 7.8446779783980505 -0.752417791949963 C 7.880624298237288 -0.6899024530991155 7.946265404030678 -0.6555190167311491 8.01346939329534 -0.6555190167311491 C 8.046289946192033 -0.6555190167311491 8.08067338256 -0.6633334340875051 8.110368168514153 -0.6820880357427594 C 8.202578293319153 -0.7352260737659799 8.235398846215848 -0.8540052175825905 8.180697924721358 -0.9462153423875909 C 8.144751604882119 -1.0087306812384385 8.07911049908873 -1.0431141176064047 8.011906509824067 -1.0431141176064047 Z" fill="#2c2a56" transform="matrix(1,0,0,1,0,0)" fill-rule="nonzero"></path></g><g clip-path="url(#SvgjsClipPath69664bb73fb4f-2e63-4f9b-9447-4944a2e465ef)"><path d=" M 9.570101330681446 1.6559856372789437 C 9.537280777784751 1.6559856372789437 9.502897341416785 1.6638000546352996 9.473202555462633 1.6825546562905536 C 9.380992430657631 1.7356926943137743 9.348171877760937 1.854471838130384 9.402872799255428 1.9466819629353846 C 9.438819119094667 2.0091973017862332 9.504460224888057 2.043580738154199 9.571664214152717 2.043580738154199 C 9.604484767049414 2.043580738154199 9.63886820341738 2.0357663207978423 9.66856298937153 2.0170117191425883 C 9.760773114176532 1.9638736811193684 9.793593667073226 1.845094537302757 9.738892745578735 1.7528844124977572 C 9.702946425739498 1.6903690736469095 9.637305319946107 1.6559856372789437 9.570101330681446 1.6559856372789437 Z" fill="#2c2a56" transform="matrix(1,0,0,1,0,0)" fill-rule="nonzero"></path></g><g clip-path="url(#SvgjsClipPath69664bb73fb4f-2e63-4f9b-9447-4944a2e465ef)"><path d=" M 8.011906509824067 2.5562065167311503 C 7.979085956927372 2.5562065167311503 7.944702520559406 2.5640209340875058 7.915007734605254 2.5827755357427598 C 7.822797609800253 2.635913573765981 7.789977056903558 2.754692717582591 7.8446779783980505 2.8469028423875904 C 7.880624298237288 2.9094181812384385 7.946265404030678 2.943801617606405 8.01346939329534 2.943801617606405 C 8.046289946192033 2.943801617606405 8.08067338256 2.935987200250048 8.110368168514153 2.917232598594794 C 8.202578293319153 2.864094560571574 8.235398846215848 2.7453154167549627 8.180697924721358 2.6531052919499634 C 8.144751604882119 2.590589953099116 8.07911049908873 2.5562065167311503 8.011906509824067 2.5562065167311503 Z" fill="#2c2a56" transform="matrix(1,0,0,1,0,0)" fill-rule="nonzero"></path></g><g clip-path="url(#SvgjsClipPath69664bb73fb4f-2e63-4f9b-9447-4944a2e465ef)"><path d=" M 6.453711688966689 -0.1428932381541984 C 6.4208911360699945 -0.1428932381541984 6.386507699702029 -0.1350788207978424 6.356812913747875 -0.11632421914258806 C 6.2646027889428755 -0.06318618111936747 6.231782236046181 0.05559296269724312 6.286483157540672 0.14780308750224358 C 6.3224294773799095 0.21031842635309106 6.3880705831733 0.24470186272105754 6.45527457243796 0.24470186272105754 C 6.488095125334656 0.24470186272105754 6.522478561702622 0.2368874453647014 6.552173347656774 0.2181328437094472 C 6.644383472461775 0.1649948056862265 6.67720402535847 0.04621566186961612 6.622503103863978 -0.04599446293538445 C 6.586556784024741 -0.10850980178623204 6.520915678231351 -0.1428932381541984 6.453711688966689 -0.1428932381541984 Z" fill="#2c2a56" transform="matrix(1,0,0,1,0,0)" fill-rule="nonzero"></path></g><g clip-path="url(#SvgjsClipPath69664bb73fb4f-2e63-4f9b-9447-4944a2e465ef)"><path d=" M 6.550610464185503 1.6825546562905536 C 6.520915678231351 1.6653629381065707 6.486532241863385 1.6559856372789437 6.453711688966689 1.6559856372789437 C 6.386507699702029 1.6559856372789437 6.320866593908638 1.6903690736469095 6.284920274069401 1.7528844124977572 C 6.231782236046181 1.845094537302757 6.263039905471604 1.9638736811193684 6.355250030276604 2.0170117191425883 C 6.384944816230758 2.034203437326572 6.419328252598723 2.043580738154199 6.452148805495418 2.043580738154199 C 6.51935279476008 2.043580738154199 6.58499390055347 2.0091973017862332 6.620940220392707 1.9466819629353846 C 6.675641141887199 1.854471838130384 6.642820588990504 1.7356926943137743 6.550610464185503 1.6825546562905536 Z" fill="#2c2a56" transform="matrix(1,0,0,1,0,0)" fill-rule="nonzero"></path></g><g clip-path="url(#SvgjsClipPath69664bb73fb4f-2e63-4f9b-9447-4944a2e465ef)"><path d=" M 9.571664214152717 0.2447018627210571 C 9.677940290199158 0.2447018627210571 9.765461764590345 0.15874327180114167 9.765461764590345 0.050904312283429176 C 9.765461764590345 -0.05537176376301178 9.67950317367043 -0.14289323815419852 9.571664214152717 -0.14289323815419852 C 9.463825254635005 -0.14289323815419852 9.376303780243818 -0.056934647234282876 9.376303780243818 0.049341428812158084 C 9.376303780243818 0.15718038832987058 9.463825254635005 0.2447018627210571 9.571664214152717 0.2447018627210571 Z" fill="#2c2a56" transform="matrix(1,0,0,1,0,0)" fill-rule="nonzero"></path></g><g clip-path="url(#SvgjsClipPath69664bb73fb4f-2e63-4f9b-9447-4944a2e465ef)"><path d=" M 6.4974724261622825 1.4840684554391124 L 6.411513835242367 1.4840684554391124 C 6.369315981518045 1.4840684554391124 6.334932545150079 1.449685019071146 6.334932545150079 1.407487165346824 L 6.334932545150079 0.4932003346531766 C 6.334932545150079 0.45100248092885464 6.369315981518045 0.41661904456088816 6.411513835242367 0.41661904456088816 L 6.4974724261622825 0.41661904456088816 C 6.5396702798866055 0.41661904456088816 6.574053716254571 0.45100248092885464 6.574053716254571 0.4932003346531766 L 6.574053716254571 1.4059242818755529 C 6.574053716254571 1.4496850190711457 6.5396702798866055 1.4840684554391124 6.4974724261622825 1.4840684554391124 Z" fill="#66ccff" transform="matrix(1,0,0,1,0,0)" fill-rule="nonzero"></path></g><g clip-path="url(#SvgjsClipPath69664bb73fb4f-2e63-4f9b-9447-4944a2e465ef)"><path d=" M 9.613862067877038 1.4840684554391124 L 9.527903476957125 1.4840684554391124 C 9.485705623232802 1.4840684554391124 9.451322186864836 1.449685019071146 9.451322186864836 1.407487165346824 L 9.451322186864836 0.4932003346531766 C 9.451322186864836 0.45100248092885464 9.485705623232802 0.41661904456088816 9.527903476957125 0.41661904456088816 L 9.613862067877038 0.41661904456088816 C 9.656059921601361 0.41661904456088816 9.690443357969327 0.45100248092885464 9.690443357969327 0.4932003346531766 L 9.690443357969327 1.4059242818755529 C 9.690443357969327 1.4496850190711457 9.656059921601361 1.4840684554391124 9.613862067877038 1.4840684554391124 Z" fill="#66ccff" transform="matrix(1,0,0,1,0,0)" fill-rule="nonzero"></path></g><g clip-path="url(#SvgjsClipPath69664bb73fb4f-2e63-4f9b-9447-4944a2e465ef)"><path d=" M 9.127805308311698 -0.06631194806190988 L 8.336986271848476 -0.5226739216730979 C 8.299477068537968 -0.5445542902708946 8.286974000767797 -0.5914407944090303 8.308854369365594 -0.6289499977195389 L 8.352615106561188 -0.7039684043405561 C 8.374495475158984 -0.7414776076510645 8.42138197929712 -0.7539806754212341 8.458891182607628 -0.7321003068234374 L 9.249710219070852 -0.2757383332122494 C 9.28721942238136 -0.25385796461445265 9.299722490151531 -0.20697146047631687 9.277842121553734 -0.16946225716580843 L 9.23408138435814 -0.09444385054479132 C 9.210638132289072 -0.05849753070555397 9.163751628150937 -0.04599446293538445 9.127805308311698 -0.06631194806190988 Z" fill="#66ccff" transform="matrix(1,0,0,1,0,0)" fill-rule="nonzero"></path></g><g clip-path="url(#SvgjsClipPath69664bb73fb4f-2e63-4f9b-9447-4944a2e465ef)"><path d=" M 6.7928574022325385 -0.09600673401606252 L 6.749096665036945 -0.17102514063707985 C 6.727216296439148 -0.2085343439475884 6.741282247680589 -0.2554208480857243 6.777228567519827 -0.2773012166835208 L 7.568047603983049 -0.7336631902947088 C 7.605556807293558 -0.7555435588925055 7.652443311431694 -0.7414776076510647 7.674323680029491 -0.7055312878118274 L 7.718084417225084 -0.6305128811908103 C 7.739964785822881 -0.5930036778803016 7.7258988345814394 -0.5461171737421658 7.6899525147422025 -0.5242368051443692 L 6.897570594807708 -0.0678748315331813 C 6.86162427496847 -0.04599446293538445 6.813174887359064 -0.05849753070555397 6.7928574022325385 -0.09600673401606252 Z" fill="#66ccff" transform="matrix(1,0,0,1,0,0)" fill-rule="nonzero"></path></g><g clip-path="url(#SvgjsClipPath69664bb73fb4f-2e63-4f9b-9447-4944a2e465ef)"><path d=" M 7.568047603983049 2.632787806823438 L 6.777228567519826 2.17642583321225 C 6.739719364209318 2.1545454646144537 6.727216296439148 2.107658960476318 6.749096665036944 2.07014975716581 L 6.7928574022325385 1.9951313505447912 C 6.814737770830335 1.9576221472342832 6.86162427496847 1.945119079464113 6.899133478278979 1.9669994480619102 L 7.6899525147422025 2.423361421673098 C 7.7274617180527105 2.4452417902708943 7.73996478582288 2.49212829440903 7.718084417225084 2.5296374977195395 L 7.67432368002949 2.604655904340557 C 7.652443311431694 2.640602224179794 7.605556807293558 2.6531052919499634 7.568047603983049 2.632787806823438 Z" fill="#66ccff" transform="matrix(1,0,0,1,0,0)" fill-rule="nonzero"></path></g><g clip-path="url(#SvgjsClipPath69664bb73fb4f-2e63-4f9b-9447-4944a2e465ef)"><path d=" M 8.351052223089916 2.6030930208692853 L 8.307291485894323 2.528074614248268 C 8.285411117296526 2.4905654109377586 8.299477068537968 2.4436789067996236 8.335423388377205 2.4217985382018266 L 9.126242424840427 1.9654365645906386 C 9.163751628150937 1.9435561959928416 9.210638132289072 1.9576221472342832 9.232518500886869 1.993568467073521 L 9.276279238082463 2.0685868736945383 C 9.298159606680258 2.106096077005047 9.284093655438818 2.152982581143182 9.248147335599581 2.1748629497409793 L 8.457328299136357 2.631224923352167 C 8.419819095825849 2.6531052919499634 8.371369708216442 2.640602224179794 8.351052223089916 2.6030930208692853 Z" fill="#66ccff" transform="matrix(1,0,0,1,0,0)" fill-rule="nonzero"></path></g><g clip-path="url(#SvgjsClipPath69664bb73fb4f-2e63-4f9b-9447-4944a2e465ef)"><path d=" M 7.5133466824885575 1.1527371595296194 C 7.5133466824885575 1.1105393058052972 7.478963246120591 1.0761558694373305 7.436765392396269 1.0761558694373305 L 7.350806801476353 1.0761558694373305 C 7.308608947752031 1.0761558694373305 7.274225511384065 1.1105393058052972 7.274225511384065 1.1527371595296194 L 7.274225511384065 1.4496850190711457 L 7.514909565959829 1.5887816480142818 L 7.514909565959829 1.1527371595296194 Z" fill="#66ccff" transform="matrix(1,0,0,1,0,0)" fill-rule="nonzero"></path></g><g clip-path="url(#SvgjsClipPath69664bb73fb4f-2e63-4f9b-9447-4944a2e465ef)"><path d=" M 7.925947918904152 0.9464365413218223 C 7.925947918904152 0.9042386875975004 7.891564482536186 0.8698552512295339 7.849366628811863 0.8698552512295339 L 7.763408037891948 0.8698552512295339 C 7.721210184167625 0.8698552512295339 7.6868267477996595 0.9042386875974999 7.6868267477996595 0.9464365413218223 L 7.6868267477996595 1.6872433067043668 L 7.927510802375423 1.826339935647503 L 7.927510802375423 0.9464365413218223 Z" fill="#0099ff" transform="matrix(1,0,0,1,0,0)" fill-rule="nonzero"></path></g><g clip-path="url(#SvgjsClipPath69664bb73fb4f-2e63-4f9b-9447-4944a2e465ef)"><path d=" M 8.338549155319747 0.7745193594819912 C 8.338549155319747 0.7323215057576689 8.304165718951781 0.6979380693897028 8.261967865227458 0.6979380693897028 L 8.176009274307543 0.6979380693897028 C 8.133811420583221 0.6979380693897028 8.099427984215254 0.7323215057576689 8.099427984215254 0.7745193594819912 L 8.099427984215254 1.826339935647503 L 8.340112038791018 1.6872433067043668 L 8.340112038791018 0.7745193594819912 Z" fill="#0066cc" transform="matrix(1,0,0,1,0,0)" fill-rule="nonzero"></path></g><g clip-path="url(#SvgjsClipPath69664bb73fb4f-2e63-4f9b-9447-4944a2e465ef)"><path d=" M 8.75115039173534 0.6026021776421602 C 8.75115039173534 0.5604043239178378 8.716766955367376 0.5260208875498718 8.674569101643053 0.5260208875498718 L 8.588610510723138 0.5260208875498718 C 8.546412656998815 0.5260208875498718 8.512029220630849 0.5604043239178378 8.512029220630849 0.6026021776421602 L 8.512029220630849 1.5887816480142818 L 8.752713275206613 1.4496850190711457 L 8.752713275206613 0.6026021776421602 Z" fill="#003399" transform="matrix(1,0,0,1,0,0)" fill-rule="nonzero"></path></g></g><g><path d=" M 0.4365 0.17849999999999988 C 0.5295 0.17849999999999988 0.5295 0.1874999999999999 0.5595 0.22049999999999992 C 0.585 0.25049999999999983 0.597 0.26249999999999984 0.6165 0.26249999999999984 C 0.6405 0.26249999999999984 0.657 0.24599999999999989 0.657 0.22199999999999986 L 0.657 0.038999999999999924 C 0.657 0.014999999999999902 0.6405 -2.220446049250313e-16 0.6165 -2.220446049250313e-16 C 0.6075 -2.220446049250313e-16 0.5925 0.0014999999999998348 0.5670000000000001 0.0044999999999999485 C 0.537 0.008999999999999897 0.498 0.013499999999999845 0.47400000000000003 0.013499999999999845 L 0.198 0.013499999999999845 C 0.0915 0.013499999999999845 0.07200000000000001 -2.220446049250313e-16 0.048 -2.220446049250313e-16 C 0.024 -2.220446049250313e-16 0.015 0.010499999999999954 0.015 0.034499999999999975 L 0.015 0.23099999999999987 C 0.015 0.2489999999999999 0.025500000000000002 0.26249999999999984 0.042 0.26249999999999984 C 0.063 0.26249999999999984 0.0765 0.24749999999999994 0.1095 0.21899999999999986 C 0.14250000000000002 0.1904999999999999 0.1515 0.17849999999999988 0.23550000000000001 0.17849999999999988 L 0.23550000000000001 0.9944999999999999 C 0.23550000000000001 1.0545 0.171 1.089 0.171 1.1204999999999998 C 0.171 1.134 0.183 1.146 0.20400000000000001 1.146 L 0.468 1.146 C 0.489 1.146 0.501 1.134 0.501 1.1204999999999998 C 0.501 1.089 0.4365 1.0545 0.4365 0.9944999999999999 M 1.1339970703125 0.17849999999999988 C 1.1489970703125 0.17849999999999988 1.1549970703125 0.1844999999999999 1.1549970703125 0.19799999999999984 L 1.1549970703125 0.45299999999999985 C 1.1549970703125 0.4634999999999999 1.1519970703125 0.4754999999999999 1.1189970703125 0.4979999999999999 L 0.9704970703125 0.5999999999999999 L 0.9704970703125 0.17849999999999988 M 1.3544970703125 1.011 C 1.3439970703125002 0.9914999999999999 1.2809970703125 0.8324999999999999 1.2194970703124999 0.6555 C 1.2884970703125 0.6119999999999999 1.3559970703125002 0.5729999999999998 1.3559970703125002 0.5084999999999998 L 1.3559970703125002 0.15599999999999992 C 1.3559970703125002 0.05699999999999994 1.2929970703125 0.011999999999999789 1.1924970703125 0.011999999999999789 L 0.7379970703125001 0.013499999999999845 C 0.7169970703125 0.013499999999999845 0.7049970703125 0.025499999999999856 0.7049970703125 0.038999999999999924 C 0.7049970703125 0.07049999999999979 0.7694970703125 0.10499999999999998 0.7694970703125 0.16499999999999992 L 0.7694970703125 0.9944999999999999 C 0.7694970703125 1.0545 0.7049970703125 1.089 0.7049970703125 1.1204999999999998 C 0.7049970703125 1.134 0.7169970703125 1.146 0.7379970703125001 1.146 L 1.0019970703125 1.146 C 1.0229970703125 1.146 1.0349970703125 1.134 1.0349970703125 1.1204999999999998 C 1.0349970703125 1.089 0.9704970703125 1.0545 0.9704970703125 0.9944999999999999 L 0.9704970703125 0.8264999999999999 C 0.9704970703125 0.8174999999999999 0.9719970703125 0.813 0.9764970703125 0.8099999999999998 L 1.0319970703124999 0.7754999999999999 C 1.0319970703124999 0.7754999999999999 1.1369970703125 1.0439999999999998 1.1369970703125 1.0605 C 1.1369970703125 1.0935 1.1024970703124999 1.0979999999999999 1.1024970703124999 1.1204999999999998 C 1.1024970703124999 1.134 1.1159970703125 1.146 1.1369970703125 1.146 L 1.3964970703125 1.146 C 1.4129970703125 1.146 1.4279970703125 1.134 1.4279970703125 1.1204999999999998 C 1.4279970703125 1.0875 1.3994970703125 1.0904999999999998 1.3544970703125 1.011 M 2.0790593261718753 0.16499999999999992 C 2.0790593261718753 0.10499999999999998 2.143559326171875 0.07049999999999979 2.143559326171875 0.038999999999999924 C 2.143559326171875 0.025499999999999856 2.1315593261718755 0.013499999999999845 2.110559326171875 0.013499999999999845 L 1.8465593261718753 0.013499999999999845 C 1.8255593261718752 0.013499999999999845 1.8135593261718752 0.025499999999999856 1.8135593261718752 0.038999999999999924 C 1.8135593261718752 0.07049999999999979 1.8780593261718752 0.10499999999999998 1.8780593261718752 0.16499999999999992 L 1.8780593261718752 0.9704999999999999 C 1.8780593261718752 0.9764999999999999 1.8735593261718753 0.9809999999999999 1.8675593261718753 0.9809999999999999 L 1.7040593261718753 0.9809999999999999 C 1.6980593261718753 0.9809999999999999 1.6935593261718753 0.9764999999999999 1.6935593261718753 0.9704999999999999 L 1.6935593261718753 0.16499999999999992 C 1.6935593261718753 0.10499999999999998 1.758059326171875 0.07049999999999979 1.758059326171875 0.038999999999999924 C 1.758059326171875 0.025499999999999856 1.7460593261718753 0.013499999999999845 1.7250593261718752 0.013499999999999845 L 1.4610593261718752 0.013499999999999845 C 1.4400593261718753 0.013499999999999845 1.4280593261718753 0.025499999999999856 1.4280593261718753 0.038999999999999924 C 1.4280593261718753 0.07049999999999979 1.4925593261718753 0.10499999999999998 1.4925593261718753 0.16499999999999992 L 1.4925593261718753 1.0305 C 1.4925593261718753 1.1084999999999998 1.5570593261718753 1.146 1.6350593261718753 1.146 L 1.9305593261718752 1.146 C 2.0220593261718753 1.146 2.0790593261718753 1.083 2.0790593261718753 1.023 M 2.4721025390625004 0.9809999999999999 L 2.4721025390625004 0.7184999999999999 C 2.4721025390625004 0.708 2.4766025390625 0.702 2.4886025390625 0.6929999999999998 L 2.6026025390625005 0.6164999999999999 C 2.6026025390625005 0.6164999999999999 2.6956025390625005 0.6839999999999999 2.6956025390625005 0.7049999999999998 L 2.6956025390625005 0.96 C 2.6956025390625005 0.9749999999999999 2.6896025390625002 0.9809999999999999 2.6746025390625006 0.9809999999999999 M 2.6356025390625004 0.17849999999999988 C 2.6536025390625 0.17849999999999988 2.6566025390625003 0.18149999999999988 2.6566025390625003 0.19799999999999984 L 2.6566025390625003 0.3599999999999999 C 2.6566025390625003 0.37349999999999994 2.6461025390625004 0.38849999999999985 2.6311025390625002 0.3989999999999999 L 2.4721025390625004 0.4979999999999999 L 2.4721025390625004 0.17849999999999988 M 2.7541025390625005 1.146 C 2.8306025390625003 1.146 2.8966025390625 1.107 2.8966025390625 1.0305 L 2.8966025390625 0.6344999999999998 C 2.8966025390625 0.5744999999999999 2.8186025390625002 0.5309999999999999 2.7781025390625005 0.5025 C 2.8081025390625003 0.47699999999999987 2.8576025390625004 0.44099999999999995 2.8576025390625004 0.3869999999999999 L 2.8576025390625004 0.15749999999999986 C 2.8576025390625004 0.06599999999999984 2.8051025390625 0.013499999999999845 2.6941025390625004 0.013499999999999845 L 2.2396025390625005 0.013499999999999845 C 2.2186025390625 0.013499999999999845 2.2066025390625 0.025499999999999856 2.2066025390625 0.038999999999999924 C 2.2066025390625 0.07049999999999979 2.2711025390625004 0.10499999999999998 2.2711025390625004 0.16499999999999992 L 2.2711025390625004 0.9944999999999999 C 2.2711025390625004 1.0545 2.2066025390625 1.089 2.2066025390625 1.1204999999999998 C 2.2066025390625 1.134 2.2186025390625 1.146 2.2396025390625005 1.146 M 3.2251025390625006 0.9809999999999999 L 3.2251025390625006 0.16499999999999992 C 3.2251025390625006 0.10499999999999998 3.2896025390625003 0.07049999999999979 3.2896025390625003 0.038999999999999924 C 3.2896025390625003 0.025499999999999856 3.2776025390625003 0.013499999999999845 3.2566025390625004 0.013499999999999845 L 2.9926025390625006 0.013499999999999845 C 2.9716025390625003 0.013499999999999845 2.9596025390625003 0.025499999999999856 2.9596025390625003 0.038999999999999924 C 2.9596025390625003 0.07049999999999979 3.0241025390625005 0.10499999999999998 3.0241025390625005 0.16499999999999992 L 3.0241025390625005 0.9944999999999999 C 3.0241025390625005 1.0545 2.9596025390625003 1.089 2.9596025390625003 1.1204999999999998 C 2.9596025390625003 1.134 2.9716025390625003 1.146 2.9926025390625006 1.146 L 3.4666025390625004 1.146 C 3.5026025390625004 1.146 3.5176025390625005 1.131 3.5176025390625005 1.095 L 3.5176025390625005 0.7785 C 3.5176025390625005 0.7619999999999999 3.5041025390625005 0.7499999999999999 3.4921025390625005 0.7499999999999999 C 3.4741025390625007 0.7499999999999999 3.3571025390625007 0.8294999999999999 3.3331025390625006 0.8474999999999999 C 3.3211025390625006 0.8564999999999999 3.3166025390625005 0.8639999999999999 3.3166025390625005 0.8864999999999998 L 3.3166025390625005 0.9809999999999999 M 4.123568847656251 1.146 C 4.15956884765625 1.146 4.174568847656251 1.131 4.174568847656251 1.095 L 4.174568847656251 0.7785 C 4.174568847656251 0.7619999999999999 4.16106884765625 0.7499999999999999 4.149068847656251 0.7499999999999999 C 4.131068847656251 0.7499999999999999 4.014068847656251 0.8294999999999999 3.9900688476562505 0.8474999999999999 C 3.9780688476562505 0.8564999999999999 3.9735688476562507 0.8639999999999999 3.9735688476562507 0.8864999999999998 L 3.9735688476562507 0.9809999999999999 L 3.8505688476562505 0.9809999999999999 C 3.8400688476562506 0.9809999999999999 3.8310688476562507 0.9734999999999999 3.8310688476562507 0.9629999999999999 L 3.8310688476562507 0.7949999999999999 L 4.0035688476562505 0.6854999999999999 C 4.0260688476562505 0.6719999999999999 4.032068847656251 0.6599999999999999 4.032068847656251 0.6344999999999998 L 4.032068847656251 0.49649999999999994 C 4.032068847656251 0.47999999999999987 4.02156884765625 0.46499999999999986 4.0035688476562505 0.46499999999999986 C 3.9915688476562505 0.46499999999999986 3.9780688476562505 0.47099999999999986 3.9645688476562504 0.47999999999999987 L 3.8310688476562507 0.564 L 3.8310688476562507 0.1964999999999999 C 3.8310688476562507 0.1874999999999999 3.8400688476562506 0.17849999999999988 3.8505688476562505 0.17849999999999988 L 3.9735688476562507 0.17849999999999988 L 3.9735688476562507 0.3434999999999999 C 3.9735688476562507 0.3599999999999999 3.987068847656251 0.3719999999999999 3.9990688476562504 0.3719999999999999 C 4.01706884765625 0.3719999999999999 4.13406884765625 0.29249999999999987 4.158068847656251 0.27449999999999986 C 4.170068847656251 0.26549999999999985 4.174568847656251 0.2579999999999999 4.174568847656251 0.23549999999999993 L 4.174568847656251 0.06449999999999978 C 4.174568847656251 0.02849999999999997 4.15956884765625 0.013499999999999845 4.123568847656251 0.013499999999999845 L 3.5985688476562507 0.013499999999999845 C 3.5775688476562504 0.013499999999999845 3.5655688476562504 0.025499999999999856 3.5655688476562504 0.038999999999999924 C 3.5655688476562504 0.07049999999999979 3.6300688476562506 0.10499999999999998 3.6300688476562506 0.16499999999999992 L 3.6300688476562506 0.9944999999999999 C 3.6300688476562506 1.0545 3.5655688476562504 1.089 3.5655688476562504 1.1204999999999998 C 3.5655688476562504 1.134 3.5775688476562504 1.146 3.5985688476562507 1.146 M 4.548073974609376 1.146 C 4.572073974609376 1.146 4.590073974609376 1.131 4.590073974609376 1.1084999999999998 C 4.590073974609376 1.0739999999999998 4.525573974609376 1.0379999999999998 4.525573974609376 1.0065 L 4.525573974609376 0.5129999999999999 L 4.828573974609376 1.1039999999999999 C 4.8420739746093755 1.131 4.852573974609376 1.146 4.893073974609376 1.146 L 4.987573974609376 1.146 C 5.020573974609376 1.146 5.041573974609376 1.125 5.041573974609376 1.0935 L 5.041573974609376 0.16499999999999992 C 5.041573974609376 0.10499999999999998 5.106073974609376 0.07049999999999979 5.106073974609376 0.038999999999999924 C 5.106073974609376 0.025499999999999856 5.094073974609376 0.013499999999999845 5.073073974609375 0.013499999999999845 L 4.816573974609375 0.013499999999999845 C 4.7955739746093755 0.013499999999999845 4.783573974609376 0.025499999999999856 4.783573974609376 0.038999999999999924 C 4.783573974609376 0.07049999999999979 4.848073974609376 0.10499999999999998 4.848073974609376 0.16499999999999992 L 4.848073974609376 0.696 L 4.546573974609376 0.05999999999999983 C 4.5375739746093755 0.038999999999999924 4.527073974609376 0.013499999999999845 4.480573974609376 0.013499999999999845 L 4.300573974609375 0.013499999999999845 C 4.2795739746093755 0.013499999999999845 4.267573974609376 0.025499999999999856 4.267573974609376 0.038999999999999924 C 4.267573974609376 0.07049999999999979 4.332073974609376 0.10499999999999998 4.332073974609376 0.16499999999999992 L 4.332073974609376 0.9944999999999999 C 4.332073974609376 1.0545 4.267573974609376 1.089 4.267573974609376 1.1204999999999998 C 4.267573974609376 1.134 4.2795739746093755 1.146 4.300573974609375 1.146 M 5.4345725097656254 0.9809999999999999 L 5.4345725097656254 0.17849999999999988 L 5.5770725097656255 0.17849999999999988 C 5.589072509765626 0.17849999999999988 5.598072509765625 0.1874999999999999 5.598072509765625 0.1994999999999999 L 5.598072509765625 0.96 C 5.598072509765625 0.9779999999999999 5.593572509765626 0.9809999999999999 5.5770725097656255 0.9809999999999999 M 5.656572509765626 1.146 C 5.737572509765625 1.146 5.799072509765626 1.1055 5.799072509765626 1.029 L 5.799072509765626 0.15599999999999992 C 5.799072509765626 0.06449999999999978 5.746572509765626 0.013499999999999845 5.635572509765626 0.013499999999999845 L 5.2020725097656255 0.013499999999999845 C 5.181072509765626 0.013499999999999845 5.169072509765626 0.025499999999999856 5.169072509765626 0.038999999999999924 C 5.169072509765626 0.07049999999999979 5.233572509765626 0.10499999999999998 5.233572509765626 0.16499999999999992 L 5.233572509765626 0.9944999999999999 C 5.233572509765626 1.0545 5.169072509765626 1.089 5.169072509765626 1.1204999999999998 C 5.169072509765626 1.134 5.181072509765626 1.146 5.2020725097656255 1.146" fill="#2c2a56" fill-rule="nonzero"></path></g><g><path d=" M 2.6815291748046866 1.9069375 Q 2.6427791748046867 1.9069375 2.6159041748046867 1.8997499999999998 Q 2.5890291748046863 1.8925625 2.5602791748046867 1.8781875 L 2.5540291748046866 1.7756874999999999 L 2.5640291748046864 1.7756874999999999 L 2.5946541748046865 1.8419374999999998 Q 2.6171541748046865 1.8606874999999998 2.6384041748046867 1.869125 Q 2.6596541748046865 1.8775624999999998 2.6815291748046866 1.8775624999999998 Q 2.7184041748046863 1.8775624999999998 2.7393416748046864 1.8581874999999999 Q 2.7602791748046864 1.8388125 2.7602791748046864 1.8056875 Q 2.7602791748046864 1.7781874999999998 2.7480916748046864 1.7625624999999998 Q 2.7359041748046864 1.7469374999999998 2.7130916748046867 1.7347499999999998 Q 2.6902791748046866 1.7225624999999998 2.6590291748046866 1.7069374999999998 Q 2.6296541748046867 1.6919374999999999 2.6090291748046863 1.6775624999999998 Q 2.5884041748046864 1.6631874999999998 2.5777791748046863 1.6441249999999998 Q 2.5671541748046867 1.6250624999999999 2.5671541748046867 1.5963124999999998 Q 2.5671541748046867 1.5750624999999998 2.5774666748046866 1.5547499999999999 Q 2.5877791748046866 1.5344375 2.6055916748046863 1.5178749999999999 Q 2.6234041748046866 1.5013124999999998 2.6455916748046864 1.491625 Q 2.6677791748046866 1.4819375 2.6915291748046863 1.4819375 Q 2.7202791748046864 1.4819375 2.7446541748046864 1.4888124999999999 Q 2.7690291748046865 1.4956874999999998 2.7946541748046867 1.5081874999999998 L 2.8009041748046863 1.6081874999999999 L 2.7909041748046866 1.6081874999999999 L 2.7621541748046865 1.5425624999999998 Q 2.7402791748046864 1.5263125 2.7240291748046865 1.5191249999999998 Q 2.7077791748046867 1.5119375 2.6865291748046864 1.5119375 Q 2.6590291748046866 1.5119375 2.6412166748046864 1.5306875 Q 2.6234041748046866 1.5494374999999998 2.6234041748046866 1.5769374999999999 Q 2.6234041748046866 1.6088125 2.6427791748046867 1.6266249999999998 Q 2.6621541748046864 1.6444375 2.7034041748046866 1.6644374999999998 Q 2.7415291748046866 1.6831874999999998 2.7659041748046866 1.6991249999999998 Q 2.7902791748046867 1.7150625 2.8021541748046865 1.7356874999999998 Q 2.8140291748046864 1.7563125 2.8140291748046864 1.7881874999999998 Q 2.8140291748046864 1.8175624999999997 2.8015291748046867 1.8397499999999998 Q 2.7890291748046865 1.8619374999999998 2.7693416748046866 1.8769375 Q 2.7496541748046863 1.8919374999999998 2.7262166748046863 1.8994375 Q 2.7027791748046863 1.9069375 2.6815291748046866 1.9069375 M 2.8921578369140617 1.9006874999999999 L 2.8921578369140617 1.8906874999999999 L 2.9421578369140615 1.8656875 L 2.9421578369140615 1.5231875 L 2.8921578369140617 1.4981874999999998 L 2.8921578369140617 1.4881874999999998 L 3.0484078369140617 1.4881874999999998 L 3.0484078369140617 1.4981874999999998 L 2.9984078369140614 1.5231875 L 2.9984078369140614 1.8656875 L 3.0484078369140617 1.8906874999999999 L 3.0484078369140617 1.9006874999999999 L 2.8921578369140617 1.9006874999999999 M 3.129666992187499 1.9006874999999999 L 3.129666992187499 1.8906874999999999 L 3.179666992187499 1.8656875 L 3.179666992187499 1.5244375 L 3.130291992187499 1.4981874999999998 L 3.130291992187499 1.4881874999999998 L 3.222166992187499 1.4881874999999998 L 3.460916992187499 1.7881874999999998 L 3.460916992187499 1.5219375 L 3.398416992187499 1.4981874999999998 L 3.398416992187499 1.4881874999999998 L 3.554041992187499 1.4881874999999998 L 3.554041992187499 1.4981874999999998 L 3.504666992187499 1.5225624999999998 L 3.504666992187499 1.9038125 L 3.4815419921874993 1.9038125 L 3.223416992187499 1.5781874999999999 L 3.223416992187499 1.8663124999999998 L 3.285916992187499 1.8906874999999999 L 3.285916992187499 1.9006874999999999 L 3.129666992187499 1.9006874999999999 M 3.8415490112304678 1.9069375 Q 3.7777990112304676 1.9069375 3.731549011230468 1.8806874999999998 Q 3.6852990112304678 1.8544375 3.660299011230468 1.8091249999999999 Q 3.635299011230468 1.7638124999999998 3.635299011230468 1.7056874999999998 Q 3.635299011230468 1.6613124999999997 3.652486511230468 1.6209999999999998 Q 3.6696740112304678 1.5806874999999998 3.699361511230468 1.5494374999999998 Q 3.729049011230468 1.5181874999999998 3.768111511230468 1.5000624999999999 Q 3.807174011230468 1.4819375 3.8509240112304677 1.4819375 Q 3.8821740112304677 1.4819375 3.9040490112304678 1.4859999999999998 Q 3.925924011230468 1.4900624999999998 3.9431115112304678 1.4966249999999999 Q 3.9602990112304677 1.5031875 3.9777990112304678 1.5119375 L 3.980924011230468 1.6213125 L 3.9696740112304676 1.6213125 L 3.9315490112304676 1.5450624999999998 Q 3.907799011230468 1.5281874999999998 3.8899865112304677 1.5206874999999997 Q 3.872174011230468 1.5131875 3.849674011230468 1.5131875 Q 3.8046740112304676 1.5131875 3.7693615112304677 1.5356874999999999 Q 3.734049011230468 1.5581874999999998 3.7137365112304677 1.5972499999999998 Q 3.693424011230468 1.6363124999999998 3.693424011230468 1.6869375 Q 3.693424011230468 1.7463125 3.713111511230468 1.7885 Q 3.7327990112304676 1.8306874999999998 3.766236511230468 1.8528749999999998 Q 3.7996740112304677 1.8750624999999999 3.8402990112304676 1.8750624999999999 Q 3.874674011230468 1.8750624999999999 3.898111511230468 1.8653749999999998 Q 3.921549011230468 1.8556875 3.939674011230468 1.8438124999999999 L 3.977174011230468 1.7769374999999998 L 3.987799011230468 1.7769374999999998 L 3.980924011230468 1.8763124999999998 Q 3.9627990112304676 1.8856875 3.9437365112304676 1.8925625 Q 3.9246740112304677 1.8994375 3.9002990112304676 1.9031874999999998 Q 3.8759240112304676 1.9069375 3.8415490112304678 1.9069375 M 4.085932250976562 1.9006874999999999 L 4.085932250976562 1.8906874999999999 L 4.135932250976562 1.8656875 L 4.135932250976562 1.5231875 L 4.085932250976562 1.4981874999999998 L 4.085932250976562 1.4881874999999998 L 4.391557250976562 1.4881874999999998 L 4.391557250976562 1.5956875 L 4.381557250976561 1.5956875 L 4.342807250976562 1.5225624999999998 L 4.192182250976561 1.5225624999999998 L 4.192182250976561 1.6706874999999999 L 4.298432250976561 1.6706874999999999 L 4.329682250976561 1.6188124999999998 L 4.339682250976561 1.6188124999999998 L 4.339682250976561 1.7556874999999998 L 4.329682250976561 1.7556874999999998 L 4.298432250976561 1.7050625 L 4.192182250976561 1.7050625 L 4.192182250976561 1.8663124999999998 L 4.360307250976562 1.8663124999999998 L 4.399057250976561 1.7869374999999998 L 4.409057250976561 1.7869374999999998 L 4.409057250976561 1.9006874999999999 L 4.085932250976562 1.9006874999999999 M 4.641543212890624 1.9006874999999999 L 4.641543212890624 1.8850624999999999 Q 4.695918212890624 1.8225624999999999 4.730918212890624 1.7806875 Q 4.765918212890624 1.7388124999999999 4.785605712890624 1.7109999999999999 Q 4.805293212890624 1.6831874999999998 4.814355712890624 1.6638125 Q 4.8234182128906244 1.6444375 4.825605712890624 1.6284999999999998 Q 4.827793212890624 1.6125625 4.827793212890624 1.5938124999999999 Q 4.827793212890624 1.5556875 4.8077932128906244 1.5334999999999999 Q 4.787793212890624 1.5113124999999998 4.759043212890624 1.5113124999999998 Q 4.726543212890624 1.5113124999999998 4.709043212890624 1.5284999999999997 Q 4.691543212890624 1.5456874999999999 4.691543212890624 1.5800625 L 4.691543212890624 1.6081874999999999 L 4.688418212890624 1.6125625 L 4.659668212890624 1.6125625 Q 4.647168212890624 1.6125625 4.640918212890624 1.6081874999999999 Q 4.634668212890624 1.6038124999999999 4.634668212890624 1.5863124999999998 Q 4.634668212890624 1.5700625 4.644355712890624 1.5528749999999998 Q 4.654043212890624 1.5356874999999999 4.674043212890624 1.5219375 Q 4.690293212890624 1.5106875 4.704980712890624 1.5016249999999998 Q 4.719668212890624 1.4925624999999998 4.736855712890624 1.48725 Q 4.754043212890624 1.4819375 4.778418212890624 1.4819375 Q 4.810293212890624 1.4819375 4.834980712890624 1.4969374999999998 Q 4.859668212890624 1.5119375 4.874043212890624 1.5369374999999998 Q 4.888418212890624 1.5619375 4.888418212890624 1.5925624999999999 Q 4.888418212890624 1.6131874999999998 4.883418212890624 1.630375 Q 4.878418212890624 1.6475624999999998 4.866855712890624 1.6656874999999998 Q 4.855293212890624 1.6838125 4.834980712890624 1.7078749999999998 Q 4.814668212890624 1.7319375 4.783730712890624 1.7659999999999998 Q 4.752793212890624 1.8000625 4.709668212890624 1.8494374999999998 L 4.856543212890624 1.8494374999999998 L 4.887793212890624 1.7888125 L 4.897793212890624 1.7888125 L 4.891543212890624 1.9006874999999999 L 4.641543212890624 1.9006874999999999 M 5.077793212890624 1.9069375 Q 5.012793212890624 1.9069375 4.977480712890624 1.8500625 Q 4.942168212890624 1.7931875 4.942168212890624 1.6944374999999998 Q 4.942168212890624 1.6331874999999998 4.959355712890624 1.585375 Q 4.976543212890624 1.5375625 5.007168212890624 1.50975 Q 5.037793212890624 1.4819375 5.077793212890624 1.4819375 Q 5.142793212890624 1.4819375 5.178105712890624 1.5388125 Q 5.213418212890624 1.5956875 5.213418212890624 1.6944374999999998 Q 5.213418212890624 1.7556874999999998 5.195918212890624 1.8034999999999999 Q 5.178418212890624 1.8513125 5.148105712890624 1.879125 Q 5.117793212890624 1.9069375 5.077793212890624 1.9069375 M 5.090918212890624 1.8775624999999998 Q 5.111543212890624 1.8775624999999998 5.125918212890624 1.8563124999999998 Q 5.140293212890624 1.8350624999999998 5.148105712890624 1.797875 Q 5.155918212890624 1.7606875 5.155918212890624 1.7138125 Q 5.155918212890624 1.6194374999999999 5.133730712890624 1.5650624999999998 Q 5.111543212890624 1.5106875 5.067168212890624 1.5106875 Q 5.045918212890624 1.5106875 5.030918212890624 1.5319374999999997 Q 5.015918212890624 1.5531875 5.007793212890624 1.5900625 Q 4.999668212890624 1.6269375 4.999668212890624 1.6738125 Q 4.999668212890624 1.7681874999999998 5.022480712890624 1.8228749999999998 Q 5.045293212890624 1.8775624999999998 5.090918212890624 1.8775624999999998 M 5.266543212890624 1.9006874999999999 L 5.266543212890624 1.8850624999999999 Q 5.320918212890624 1.8225624999999999 5.355918212890624 1.7806875 Q 5.390918212890624 1.7388124999999999 5.410605712890624 1.7109999999999999 Q 5.430293212890624 1.6831874999999998 5.439355712890624 1.6638125 Q 5.4484182128906244 1.6444375 5.450605712890624 1.6284999999999998 Q 5.452793212890624 1.6125625 5.452793212890624 1.5938124999999999 Q 5.452793212890624 1.5556875 5.4327932128906244 1.5334999999999999 Q 5.412793212890624 1.5113124999999998 5.384043212890624 1.5113124999999998 Q 5.351543212890624 1.5113124999999998 5.334043212890624 1.5284999999999997 Q 5.316543212890624 1.5456874999999999 5.316543212890624 1.5800625 L 5.316543212890624 1.6081874999999999 L 5.313418212890624 1.6125625 L 5.284668212890624 1.6125625 Q 5.272168212890624 1.6125625 5.265918212890624 1.6081874999999999 Q 5.259668212890624 1.6038124999999999 5.259668212890624 1.5863124999999998 Q 5.259668212890624 1.5700625 5.269355712890624 1.5528749999999998 Q 5.279043212890624 1.5356874999999999 5.299043212890624 1.5219375 Q 5.315293212890624 1.5106875 5.329980712890624 1.5016249999999998 Q 5.344668212890624 1.4925624999999998 5.361855712890624 1.48725 Q 5.379043212890624 1.4819375 5.403418212890624 1.4819375 Q 5.435293212890624 1.4819375 5.459980712890624 1.4969374999999998 Q 5.484668212890624 1.5119375 5.499043212890624 1.5369374999999998 Q 5.513418212890624 1.5619375 5.513418212890624 1.5925624999999999 Q 5.513418212890624 1.6131874999999998 5.508418212890624 1.630375 Q 5.503418212890624 1.6475624999999998 5.491855712890624 1.6656874999999998 Q 5.480293212890624 1.6838125 5.459980712890624 1.7078749999999998 Q 5.439668212890624 1.7319375 5.408730712890624 1.7659999999999998 Q 5.377793212890624 1.8000625 5.334668212890624 1.8494374999999998 L 5.481543212890624 1.8494374999999998 L 5.512793212890624 1.7888125 L 5.522793212890624 1.7888125 L 5.516543212890624 1.9006874999999999 L 5.266543212890624 1.9006874999999999 M 5.667793212890624 1.9069375 Q 5.605918212890624 1.9069375 5.585918212890624 1.8781875 Q 5.580918212890624 1.8713125 5.580918212890624 1.8656875 Q 5.580918212890624 1.8569375 5.592168212890624 1.8488124999999997 L 5.614043212890624 1.8319374999999998 L 5.6202932128906244 1.8319374999999998 L 5.626543212890624 1.8425624999999999 Q 5.635293212890624 1.8569375 5.651855712890624 1.8666249999999998 Q 5.668418212890624 1.8763124999999998 5.693418212890624 1.8763124999999998 Q 5.731543212890624 1.8763124999999998 5.758105712890624 1.8500625 Q 5.784668212890624 1.8238124999999998 5.784668212890624 1.7788125 Q 5.784668212890624 1.7538124999999998 5.773730712890624 1.7309999999999999 Q 5.762793212890624 1.7081874999999997 5.735918212890624 1.6938125 Q 5.709043212890624 1.6794375 5.660918212890624 1.6794375 Q 5.635293212890624 1.6794375 5.600293212890624 1.6850625 L 5.600293212890624 1.4881874999999998 L 5.799668212890624 1.4881874999999998 L 5.799668212890624 1.5363124999999997 L 5.630293212890624 1.5363124999999997 L 5.630293212890624 1.6319374999999998 Q 5.650293212890624 1.6300624999999997 5.6671682128906244 1.6300624999999997 Q 5.728418212890624 1.6300624999999997 5.764043212890624 1.6488124999999998 Q 5.799668212890624 1.6675624999999998 5.814980712890624 1.696 Q 5.830293212890624 1.7244374999999998 5.830293212890624 1.7550624999999997 Q 5.830293212890624 1.8019374999999997 5.809355712890624 1.8359999999999999 Q 5.788418212890624 1.8700625 5.751855712890624 1.8884999999999998 Q 5.715293212890624 1.9069375 5.667793212890624 1.9069375" fill="#003399" fill-rule="nonzero"></path></g></g><defs><clipPath id="SvgjsClipPath69669"><path d=" M 6.259043212890624 -1.0431141176064047 h 3.5064211554645204 v 3.9869157352128095 h -3.5064211554645204 Z"></path></clipPath><clipPath id="SvgjsClipPath69664bb73fb4f-2e63-4f9b-9447-4944a2e465ef"><path d=" M 6.259043212890624 -1.0431141176064047 L 9.765464368355145 -1.0431141176064047 L 9.765464368355145 2.943801617606405 L 6.259043212890624 2.943801617606405 Z"></path></clipPath></defs></svg>